<mxfile host="app.diagrams.net" modified="2023-11-21T20:34:33.581Z" agent="Mozilla/5.0 (Windows NT 10.0; Win64; x64) AppleWebKit/537.36 (KHTML, like Gecko) Chrome/119.0.0.0 Safari/537.36" etag="dPAGhl4Q0UNmmkayn5DT" version="22.1.3" type="device">
  <diagram name="Pagina-1" id="9AIsG51CfW7OGZY7d_SR">
    <mxGraphModel dx="2227" dy="1881" grid="1" gridSize="10" guides="1" tooltips="1" connect="1" arrows="1" fold="1" page="1" pageScale="1" pageWidth="827" pageHeight="1169" math="0" shadow="0">
      <root>
        <mxCell id="0" />
        <mxCell id="1" parent="0" />
        <mxCell id="vUSEPOSttrNjK0M88Jvj-25" style="edgeStyle=orthogonalEdgeStyle;rounded=0;orthogonalLoop=1;jettySize=auto;html=1;exitX=0.75;exitY=0.1;exitDx=0;exitDy=0;exitPerimeter=0;entryX=0.5;entryY=1;entryDx=0;entryDy=0;" edge="1" parent="1" source="jrIZ9LQtfj0dN-YNM4Yh-1" target="jrIZ9LQtfj0dN-YNM4Yh-13">
          <mxGeometry relative="1" as="geometry">
            <Array as="points">
              <mxPoint x="406" y="350" />
              <mxPoint x="482" y="350" />
              <mxPoint x="482" y="160" />
              <mxPoint x="440" y="160" />
            </Array>
          </mxGeometry>
        </mxCell>
        <mxCell id="vUSEPOSttrNjK0M88Jvj-26" style="edgeStyle=orthogonalEdgeStyle;rounded=0;orthogonalLoop=1;jettySize=auto;html=1;exitX=0.5;exitY=0;exitDx=0;exitDy=0;exitPerimeter=0;entryX=0.5;entryY=1;entryDx=0;entryDy=0;" edge="1" parent="1" source="jrIZ9LQtfj0dN-YNM4Yh-1" target="vUSEPOSttrNjK0M88Jvj-2">
          <mxGeometry relative="1" as="geometry" />
        </mxCell>
        <mxCell id="vUSEPOSttrNjK0M88Jvj-27" style="edgeStyle=orthogonalEdgeStyle;rounded=0;orthogonalLoop=1;jettySize=auto;html=1;exitX=0.5;exitY=0;exitDx=0;exitDy=0;exitPerimeter=0;entryX=1;entryY=1;entryDx=0;entryDy=0;" edge="1" parent="1" source="jrIZ9LQtfj0dN-YNM4Yh-1" target="vUSEPOSttrNjK0M88Jvj-1">
          <mxGeometry relative="1" as="geometry">
            <Array as="points">
              <mxPoint x="370" y="440" />
              <mxPoint x="370" y="320" />
              <mxPoint x="282" y="320" />
            </Array>
          </mxGeometry>
        </mxCell>
        <mxCell id="vUSEPOSttrNjK0M88Jvj-28" style="edgeStyle=orthogonalEdgeStyle;rounded=0;orthogonalLoop=1;jettySize=auto;html=1;exitX=0.25;exitY=0.1;exitDx=0;exitDy=0;exitPerimeter=0;entryX=0.5;entryY=1;entryDx=0;entryDy=0;" edge="1" parent="1" source="jrIZ9LQtfj0dN-YNM4Yh-1" target="jrIZ9LQtfj0dN-YNM4Yh-5">
          <mxGeometry relative="1" as="geometry" />
        </mxCell>
        <mxCell id="vUSEPOSttrNjK0M88Jvj-29" style="edgeStyle=orthogonalEdgeStyle;rounded=0;orthogonalLoop=1;jettySize=auto;html=1;entryX=0.5;entryY=1;entryDx=0;entryDy=0;exitX=0.5;exitY=0.5;exitDx=0;exitDy=0;exitPerimeter=0;" edge="1" parent="1" source="jrIZ9LQtfj0dN-YNM4Yh-1" target="jrIZ9LQtfj0dN-YNM4Yh-6">
          <mxGeometry relative="1" as="geometry">
            <mxPoint x="380" y="470" as="sourcePoint" />
          </mxGeometry>
        </mxCell>
        <mxCell id="vUSEPOSttrNjK0M88Jvj-30" style="edgeStyle=orthogonalEdgeStyle;rounded=0;orthogonalLoop=1;jettySize=auto;html=1;exitX=0;exitY=1;exitDx=0;exitDy=0;exitPerimeter=0;entryX=0;entryY=0.5;entryDx=0;entryDy=0;" edge="1" parent="1" source="jrIZ9LQtfj0dN-YNM4Yh-1" target="jrIZ9LQtfj0dN-YNM4Yh-4">
          <mxGeometry relative="1" as="geometry">
            <Array as="points">
              <mxPoint x="384" y="520" />
              <mxPoint x="-30" y="520" />
              <mxPoint x="-30" y="10" />
            </Array>
          </mxGeometry>
        </mxCell>
        <mxCell id="vUSEPOSttrNjK0M88Jvj-31" style="edgeStyle=orthogonalEdgeStyle;rounded=0;orthogonalLoop=1;jettySize=auto;html=1;exitX=0;exitY=1;exitDx=0;exitDy=0;exitPerimeter=0;entryX=0.5;entryY=1;entryDx=0;entryDy=0;" edge="1" parent="1" source="jrIZ9LQtfj0dN-YNM4Yh-1" target="vUSEPOSttrNjK0M88Jvj-8">
          <mxGeometry relative="1" as="geometry" />
        </mxCell>
        <mxCell id="vUSEPOSttrNjK0M88Jvj-33" style="edgeStyle=orthogonalEdgeStyle;rounded=0;orthogonalLoop=1;jettySize=auto;html=1;exitX=0.5;exitY=0.5;exitDx=0;exitDy=0;exitPerimeter=0;entryX=0;entryY=0.5;entryDx=0;entryDy=0;" edge="1" parent="1" source="jrIZ9LQtfj0dN-YNM4Yh-1" target="jrIZ9LQtfj0dN-YNM4Yh-7">
          <mxGeometry relative="1" as="geometry" />
        </mxCell>
        <mxCell id="jrIZ9LQtfj0dN-YNM4Yh-1" value="Gestore" style="shape=umlActor;verticalLabelPosition=bottom;verticalAlign=top;html=1;outlineConnect=0;" parent="1" vertex="1">
          <mxGeometry x="384" y="440" width="30" height="60" as="geometry" />
        </mxCell>
        <mxCell id="vUSEPOSttrNjK0M88Jvj-19" style="edgeStyle=orthogonalEdgeStyle;rounded=0;orthogonalLoop=1;jettySize=auto;html=1;exitX=0.5;exitY=0;exitDx=0;exitDy=0;exitPerimeter=0;entryX=0.5;entryY=1;entryDx=0;entryDy=0;" edge="1" parent="1" source="jrIZ9LQtfj0dN-YNM4Yh-3" target="jrIZ9LQtfj0dN-YNM4Yh-7">
          <mxGeometry relative="1" as="geometry">
            <mxPoint x="720" y="200" as="targetPoint" />
            <Array as="points">
              <mxPoint x="715" y="210" />
              <mxPoint x="670" y="210" />
            </Array>
          </mxGeometry>
        </mxCell>
        <mxCell id="vUSEPOSttrNjK0M88Jvj-20" style="edgeStyle=orthogonalEdgeStyle;rounded=0;orthogonalLoop=1;jettySize=auto;html=1;exitX=0.25;exitY=0.1;exitDx=0;exitDy=0;exitPerimeter=0;entryX=0.5;entryY=1;entryDx=0;entryDy=0;" edge="1" parent="1" source="jrIZ9LQtfj0dN-YNM4Yh-3" target="jrIZ9LQtfj0dN-YNM4Yh-9">
          <mxGeometry relative="1" as="geometry" />
        </mxCell>
        <mxCell id="vUSEPOSttrNjK0M88Jvj-21" style="edgeStyle=orthogonalEdgeStyle;rounded=0;orthogonalLoop=1;jettySize=auto;html=1;entryX=0.5;entryY=1;entryDx=0;entryDy=0;exitX=0.75;exitY=0.1;exitDx=0;exitDy=0;exitPerimeter=0;" edge="1" parent="1" source="jrIZ9LQtfj0dN-YNM4Yh-3" target="jrIZ9LQtfj0dN-YNM4Yh-10">
          <mxGeometry relative="1" as="geometry">
            <mxPoint x="1010" y="240" as="targetPoint" />
            <mxPoint x="840" y="376" as="sourcePoint" />
          </mxGeometry>
        </mxCell>
        <mxCell id="vUSEPOSttrNjK0M88Jvj-22" style="edgeStyle=orthogonalEdgeStyle;rounded=0;orthogonalLoop=1;jettySize=auto;html=1;exitX=0.75;exitY=0.1;exitDx=0;exitDy=0;exitPerimeter=0;entryX=0.5;entryY=1;entryDx=0;entryDy=0;" edge="1" parent="1" source="jrIZ9LQtfj0dN-YNM4Yh-3" target="jrIZ9LQtfj0dN-YNM4Yh-8">
          <mxGeometry relative="1" as="geometry" />
        </mxCell>
        <mxCell id="jrIZ9LQtfj0dN-YNM4Yh-3" value="Client" style="shape=umlActor;verticalLabelPosition=bottom;verticalAlign=top;html=1;outlineConnect=0;" parent="1" vertex="1">
          <mxGeometry x="700" y="370" width="30" height="60" as="geometry" />
        </mxCell>
        <mxCell id="jrIZ9LQtfj0dN-YNM4Yh-4" value="Cambio Prezzi" style="ellipse;whiteSpace=wrap;html=1;" parent="1" vertex="1">
          <mxGeometry x="90" y="-30" width="120" height="80" as="geometry" />
        </mxCell>
        <mxCell id="jrIZ9LQtfj0dN-YNM4Yh-5" value="Rimozione Destinazione" style="ellipse;whiteSpace=wrap;html=1;" parent="1" vertex="1">
          <mxGeometry x="160" y="330" width="120" height="80" as="geometry" />
        </mxCell>
        <mxCell id="jrIZ9LQtfj0dN-YNM4Yh-6" value="Aggiunta Destinazione" style="ellipse;whiteSpace=wrap;html=1;" parent="1" vertex="1">
          <mxGeometry x="60" y="240" width="120" height="80" as="geometry" />
        </mxCell>
        <mxCell id="jrIZ9LQtfj0dN-YNM4Yh-7" value="Acquisto Pacchetto Vacanza" style="ellipse;whiteSpace=wrap;html=1;" parent="1" vertex="1">
          <mxGeometry x="610" y="40" width="120" height="80" as="geometry" />
        </mxCell>
        <mxCell id="jrIZ9LQtfj0dN-YNM4Yh-8" value="Pagamento" style="ellipse;whiteSpace=wrap;html=1;" parent="1" vertex="1">
          <mxGeometry x="770" y="130" width="120" height="80" as="geometry" />
        </mxCell>
        <mxCell id="jrIZ9LQtfj0dN-YNM4Yh-9" value="Recensione" style="ellipse;whiteSpace=wrap;html=1;" parent="1" vertex="1">
          <mxGeometry x="550" y="210" width="120" height="80" as="geometry" />
        </mxCell>
        <mxCell id="jrIZ9LQtfj0dN-YNM4Yh-10" value="Login Utente" style="ellipse;whiteSpace=wrap;html=1;" parent="1" vertex="1">
          <mxGeometry x="880" y="10" width="120" height="80" as="geometry" />
        </mxCell>
        <mxCell id="jrIZ9LQtfj0dN-YNM4Yh-13" value="Login Amministratore" style="ellipse;whiteSpace=wrap;html=1;" parent="1" vertex="1">
          <mxGeometry x="380" y="-10" width="120" height="80" as="geometry" />
        </mxCell>
        <mxCell id="jrIZ9LQtfj0dN-YNM4Yh-27" value="Include" style="html=1;verticalAlign=bottom;endArrow=open;dashed=1;endSize=8;curved=0;rounded=0;entryX=0;entryY=1;entryDx=0;entryDy=0;exitX=1;exitY=0;exitDx=0;exitDy=0;" parent="1" source="vUSEPOSttrNjK0M88Jvj-1" target="jrIZ9LQtfj0dN-YNM4Yh-13" edge="1">
          <mxGeometry relative="1" as="geometry">
            <mxPoint x="390" y="140" as="sourcePoint" />
            <mxPoint x="230" y="130" as="targetPoint" />
          </mxGeometry>
        </mxCell>
        <mxCell id="jrIZ9LQtfj0dN-YNM4Yh-28" value="Include" style="html=1;verticalAlign=bottom;endArrow=open;dashed=1;endSize=8;curved=0;rounded=0;exitX=1;exitY=1;exitDx=0;exitDy=0;entryX=0;entryY=0;entryDx=0;entryDy=0;" parent="1" source="jrIZ9LQtfj0dN-YNM4Yh-13" target="jrIZ9LQtfj0dN-YNM4Yh-7" edge="1">
          <mxGeometry relative="1" as="geometry">
            <mxPoint x="370" y="180" as="sourcePoint" />
            <mxPoint x="290" y="180" as="targetPoint" />
          </mxGeometry>
        </mxCell>
        <mxCell id="vUSEPOSttrNjK0M88Jvj-1" value="Creazione Pacchetto Vacanza" style="ellipse;whiteSpace=wrap;html=1;" vertex="1" parent="1">
          <mxGeometry x="180" y="120" width="120" height="80" as="geometry" />
        </mxCell>
        <mxCell id="vUSEPOSttrNjK0M88Jvj-2" value="Rimozione Hotel" style="ellipse;whiteSpace=wrap;html=1;" vertex="1" parent="1">
          <mxGeometry x="339" y="190" width="120" height="80" as="geometry" />
        </mxCell>
        <mxCell id="vUSEPOSttrNjK0M88Jvj-8" value="Aggiunta Hotel" style="ellipse;whiteSpace=wrap;html=1;" vertex="1" parent="1">
          <mxGeometry x="-10" y="120" width="120" height="80" as="geometry" />
        </mxCell>
        <mxCell id="vUSEPOSttrNjK0M88Jvj-9" value="Extend" style="html=1;verticalAlign=bottom;endArrow=open;dashed=1;endSize=8;curved=0;rounded=0;exitX=0.5;exitY=0;exitDx=0;exitDy=0;" edge="1" parent="1" source="vUSEPOSttrNjK0M88Jvj-2" target="vUSEPOSttrNjK0M88Jvj-1">
          <mxGeometry x="-0.0087" relative="1" as="geometry">
            <mxPoint x="250" y="240" as="sourcePoint" />
            <mxPoint x="286" y="534" as="targetPoint" />
            <mxPoint as="offset" />
          </mxGeometry>
        </mxCell>
        <mxCell id="vUSEPOSttrNjK0M88Jvj-11" value="Extend" style="html=1;verticalAlign=bottom;endArrow=open;dashed=1;endSize=8;curved=0;rounded=0;exitX=0.5;exitY=1;exitDx=0;exitDy=0;entryX=0;entryY=0;entryDx=0;entryDy=0;" edge="1" parent="1" source="jrIZ9LQtfj0dN-YNM4Yh-4" target="vUSEPOSttrNjK0M88Jvj-1">
          <mxGeometry x="-0.0087" relative="1" as="geometry">
            <mxPoint x="106" y="96.5" as="sourcePoint" />
            <mxPoint x="20" y="43.5" as="targetPoint" />
            <mxPoint as="offset" />
          </mxGeometry>
        </mxCell>
        <mxCell id="vUSEPOSttrNjK0M88Jvj-12" value="Extend" style="html=1;verticalAlign=bottom;endArrow=open;dashed=1;endSize=8;curved=0;rounded=0;exitX=0.5;exitY=0;exitDx=0;exitDy=0;entryX=0.5;entryY=1;entryDx=0;entryDy=0;" edge="1" parent="1" source="jrIZ9LQtfj0dN-YNM4Yh-5" target="vUSEPOSttrNjK0M88Jvj-1">
          <mxGeometry x="-0.0087" relative="1" as="geometry">
            <mxPoint x="390" y="260" as="sourcePoint" />
            <mxPoint x="304" y="207" as="targetPoint" />
            <mxPoint as="offset" />
          </mxGeometry>
        </mxCell>
        <mxCell id="vUSEPOSttrNjK0M88Jvj-13" value="Include" style="html=1;verticalAlign=bottom;endArrow=open;dashed=1;endSize=8;curved=0;rounded=0;exitX=0;exitY=0.5;exitDx=0;exitDy=0;entryX=1;entryY=0;entryDx=0;entryDy=0;" edge="1" parent="1" source="vUSEPOSttrNjK0M88Jvj-1" target="vUSEPOSttrNjK0M88Jvj-8">
          <mxGeometry relative="1" as="geometry">
            <mxPoint x="450" y="80" as="sourcePoint" />
            <mxPoint x="310" y="170" as="targetPoint" />
          </mxGeometry>
        </mxCell>
        <mxCell id="vUSEPOSttrNjK0M88Jvj-14" value="Include" style="html=1;verticalAlign=bottom;endArrow=open;dashed=1;endSize=8;curved=0;rounded=0;exitX=0;exitY=1;exitDx=0;exitDy=0;entryX=0.5;entryY=0;entryDx=0;entryDy=0;" edge="1" parent="1" source="vUSEPOSttrNjK0M88Jvj-1" target="jrIZ9LQtfj0dN-YNM4Yh-6">
          <mxGeometry relative="1" as="geometry">
            <mxPoint x="460" y="90" as="sourcePoint" />
            <mxPoint x="320" y="180" as="targetPoint" />
          </mxGeometry>
        </mxCell>
        <mxCell id="vUSEPOSttrNjK0M88Jvj-15" value="Include" style="html=1;verticalAlign=bottom;endArrow=open;dashed=1;endSize=8;curved=0;rounded=0;exitX=1;exitY=0.5;exitDx=0;exitDy=0;entryX=0;entryY=0.5;entryDx=0;entryDy=0;" edge="1" parent="1" source="jrIZ9LQtfj0dN-YNM4Yh-7" target="jrIZ9LQtfj0dN-YNM4Yh-10">
          <mxGeometry relative="1" as="geometry">
            <mxPoint x="470" y="100" as="sourcePoint" />
            <mxPoint x="330" y="190" as="targetPoint" />
          </mxGeometry>
        </mxCell>
        <mxCell id="vUSEPOSttrNjK0M88Jvj-16" value="Include" style="html=1;verticalAlign=bottom;endArrow=open;dashed=1;endSize=8;curved=0;rounded=0;exitX=1;exitY=1;exitDx=0;exitDy=0;entryX=0;entryY=0.5;entryDx=0;entryDy=0;" edge="1" parent="1" source="jrIZ9LQtfj0dN-YNM4Yh-7" target="jrIZ9LQtfj0dN-YNM4Yh-8">
          <mxGeometry relative="1" as="geometry">
            <mxPoint x="480" y="110" as="sourcePoint" />
            <mxPoint x="340" y="200" as="targetPoint" />
          </mxGeometry>
        </mxCell>
        <mxCell id="vUSEPOSttrNjK0M88Jvj-18" value="Extend" style="html=1;verticalAlign=bottom;endArrow=open;dashed=1;endSize=8;curved=0;rounded=0;exitX=0.5;exitY=0;exitDx=0;exitDy=0;entryX=0;entryY=1;entryDx=0;entryDy=0;" edge="1" parent="1" source="jrIZ9LQtfj0dN-YNM4Yh-9" target="jrIZ9LQtfj0dN-YNM4Yh-7">
          <mxGeometry x="-0.0087" relative="1" as="geometry">
            <mxPoint x="400" y="230" as="sourcePoint" />
            <mxPoint x="301" y="191" as="targetPoint" />
            <mxPoint as="offset" />
          </mxGeometry>
        </mxCell>
        <mxCell id="vUSEPOSttrNjK0M88Jvj-23" value="Include" style="html=1;verticalAlign=bottom;endArrow=open;dashed=1;endSize=8;curved=0;rounded=0;exitX=0;exitY=0.5;exitDx=0;exitDy=0;entryX=1;entryY=0.5;entryDx=0;entryDy=0;" edge="1" parent="1" source="jrIZ9LQtfj0dN-YNM4Yh-13" target="jrIZ9LQtfj0dN-YNM4Yh-4">
          <mxGeometry relative="1" as="geometry">
            <mxPoint x="408" y="68" as="sourcePoint" />
            <mxPoint x="292" y="142" as="targetPoint" />
          </mxGeometry>
        </mxCell>
      </root>
    </mxGraphModel>
  </diagram>
</mxfile>
